# xmcd CD database file
#
# Track frame offsets:
#	150
#	16925
#	32711
#	63622
#	77264
#	91131
#	100899
#	114701
#	124243
#	141449
#	152055
#	164471
#	184679
#	202630
#	227678
#
# Disc length: 3387 seconds
#
# Revision: 1
# Processed by: cddbd v1.5.2PL0 Copyright (c) Steve Scherf et al.
# Submitted via: CDex 1.70beta2
#
DISCID=bb0d390f
DTITLE=Howlin' Wolf - The London Sessions
DYEAR=1973
DGENRE=Blues
TTITLE0=Rockin' Daddy
TTITLE1=I Ain't Superstitious
TTITLE2=Sittin' On Top Of The World
TTITLE3=What A Woman!
TTITLE4=Poor Boy
TTITLE5=Built For Comfort
TTITLE6=Who's Been Talking?
TTITLE7=The Red Rooster (rehearsal)
TTITLE8=The Red Rooster
TTITLE9=Do The do
TTITLE10=Highway 49
TTITLE11=Wang-Dang-Doodle
TTITLE12=Albert King-Killing Floor
TTITLE13=Albert King-I'll Play The Blues For You
TTITLE14=Albert King-Angel Of Mercy
EXTD=YEAR: 1973
EXTT0=
EXTT1=
EXTT2=
EXTT3=
EXTT4=
EXTT5=
EXTT6=
EXTT7=
EXTT8=
EXTT9=
EXTT10=
EXTT11=
EXTT12=
EXTT13=
EXTT14=
PLAYORDER=
